# xmcd CD database file
#
# Track frame offsets:
#	150
#	7692
#	17799
#	29386
#	38772
#	51187
#	61282
#	68800
#	79237
#	86800
#	96895
#	108286
#	116207
#	125324
#	136377
#	144289
#	154358
#	165636
#	173750
#	185073
#	195731
#	206302
#	215171
#	224392
#	234735
#	244496
#	256637
#	264234
#	278386
#	289885
#	296941
#	308627
#	320915
#	334250
#
# Disc length: 4625 seconds
#
# Revision: 0
# Processed by: cddbd v1.5.2PL0 Copyright (c) Steve Scherf et al.
# Submitted via: CDex 1.70beta2
#
DISCID=00120f22
DTITLE=Eddie Bond - Memphis Country Music King
DYEAR=2015
DGENRE=Country
TTITLE0=Behave, Be Quiet Or Begone
TTITLE1=Tank Town Boogie
TTITLE2=Won't You Ride In My Little Red Wagon
TTITLE3=Gamblin' Man
TTITLE4=The Devil Is A Woman
TTITLE5=Love Love Love
TTITLE6=Fool About You
TTITLE7=Feel Like Catching The Blues
TTITLE8=Winner's Circle
TTITLE9=I Just Found Out
TTITLE10=This Cold War With You
TTITLE11=Running Drunk
TTITLE12=One More Memory
TTITLE13=Someday I'll Sober Up
TTITLE14=High Steppin' Woman
TTITLE15=I Got A Hole In My Pirogue
TTITLE16=Caution
TTITLE17=I'll Step Aside
TTITLE18=Now And Then
TTITLE19=Your Woman May Have Been Here
TTITLE20=Time
TTITLE21=Whatever Makes Me You Happy
TTITLE22=Double Duty Lovin'
TTITLE23=I Can't Fight This Much Longer
TTITLE24=They Say We're Too Young
TTITLE25=When The Jukebox Plays
TTITLE26=Satisfied
TTITLE27=Sweet Marie
TTITLE28=That Glass
TTITLE29=Here Comes The Train
TTITLE30=There She Goes
TTITLE31=I Turned And Walked Slowly Away
TTITLE32=Another Man's Shoes
TTITLE33=Eddie Bond - Cold Dark Waters
EXTD=YEAR: 2015
EXTT0=
EXTT1=
EXTT2=
EXTT3=
EXTT4=
EXTT5=
EXTT6=
EXTT7=
EXTT8=
EXTT9=
EXTT10=
EXTT11=
EXTT12=
EXTT13=
EXTT14=
EXTT15=
EXTT16=
EXTT17=
EXTT18=
EXTT19=
EXTT20=
EXTT21=
EXTT22=
EXTT23=
EXTT24=
EXTT25=
EXTT26=
EXTT27=
EXTT28=
EXTT29=
EXTT30=
EXTT31=
EXTT32=
EXTT33=
PLAYORDER=
